# xmcd
#
# Track frame offsets:
#	150
#	23646
#	42609
#	70637
#	83418
#	94035
#	107201
#	118838
#	131393
#	146510
#	192621
#	218850
#	231419
#	243052
#	254806
#	267389
#	286568
#	301350
#
# Disc length: 4535 seconds
#
# Revision: 0
# Processed by: cddbd v1.5.2PL0 Copyright (c) Steve Scherf et al.
# Submitted via: audiograbber 1.83.01
#
DISCID=0411b512
DTITLE=B.B. King - Ladies and Gentlemen.... Mr. B.B. King [CD 04) - Why I Sing Th
DTITLE=e Blues (1967-1969)
DYEAR=2012
DGENRE=Blues
TTITLE0=Gambler's Blues [live]
TTITLE1=Buzz Me [live]
TTITLE2=Sweet Sixteen (Parts 1&2) [live]
TTITLE3=Think It Over
TTITLE4=I Done Got Wise
TTITLE5=Worried Dream
TTITLE6=Paying The Cost To Be The Boss
TTITLE7=I'm Gonna Do What They Do To Me
TTITLE8=Dance With Me
TTITLE9=Lucille
TTITLE10=Watch Yourself
TTITLE11=You Put It On Me
TTITLE12=Messy But Good
TTITLE13=Get Myself Somebody [mono]
TTITLE14=My Mood [live]
TTITLE15=I Want You So Bad
TTITLE16=Get Off My Back Woman
TTITLE17=Why I Sing The Blues
EXTD=
EXTT0=
EXTT1=
EXTT2=
EXTT3=
EXTT4=
EXTT5=
EXTT6=
EXTT7=
EXTT8=
EXTT9=
EXTT10=
EXTT11=
EXTT12=
EXTT13=
EXTT14=
EXTT15=
EXTT16=
EXTT17=
PLAYORDER=
